# xmcd
#
# Track frame offsets: 
#        150
#        16141
#        29076
#        42211
#        58698
#        70971
#        85144
#        93660
#        107904
#        118933
#        130990
#        141907
#        161582
#        183187
#        198079
#        215167
#        233057
#        251305
#        265014
#        278515
#
# Disc length: 3861 seconds
#
# Revision: 0
# Processed by: cddbd v1.5.2PL0 Copyright (c) Steve Scherf et al.
# Submitted via: ExactAudioCopy v0.99pb4
#
DISCID=1f0f1314
DTITLE=Various Artist - De Topcollectie Kerstklassiekers
DYEAR=2012
DGENRE=Chanson
TTITLE0=John and Yoko And The Plastic Ono Band With The Harlem Community
TTITLE0=Choir - Happy Xmas (War Is Over)
TTITLE1=Bob Dylan - Little Drummer Boy
TTITLE2=Jona Lewie - Stop The Cavalry
TTITLE3=The Pretenders - 2000 Miles
TTITLE4=Donna Lynton - It's Gonna Be A Cold Cold Christmas
TTITLE5=Nat "King" Cole - The Christmas Song (Chestnuts Roasting On An
TTITLE5=Open Fire)
TTITLE6=Bing Crosby - I Wish You A Merry Christmas
TTITLE7=Kylie Minogue - Santa Baby
TTITLE8=Stevie Wonder - What Christmas Means To Me
TTITLE9=Lou Rawls - Christmas Is The Time
TTITLE10=Will Tura - Alle Dagen Kerstmis
TTITLE11=Wham! - Last Christmas
TTITLE12=Roxette - It Must Have Been Love (Christmas For The Broken-He
TTITLE12=arted)
TTITLE13=Spice Girls - Sleigh Ride
TTITLE14=Rob De Nijs - Alles Wat Ademt
TTITLE15=Gunther Neefs - Liefde Is Een Duur Woord
TTITLE16=Boney M - Mary's Boy Child (Oh My Lord)
TTITLE17=José Feliciano - Feliz Navidad
TTITLE18=Wannes Van De Velde - Kerstmis Is Dien Dag Dat Ze Niet Schiet
TTITLE18=en
TTITLE19=Raymond Van Het Groenewoud - Kerstlied '72 (Remix)
EXTD=
EXTT0=
EXTT1=
EXTT2=
EXTT3=
EXTT4=
EXTT5=
EXTT6=
EXTT7=
EXTT8=
EXTT9=
EXTT10=
EXTT11=
EXTT12=
EXTT13=
EXTT14=
EXTT15=
EXTT16=
EXTT17=
EXTT18=
EXTT19=
PLAYORDER=
